<?xml version="1.0" encoding="UTF-8" standalone="no"?>
<!-- Created with Inkscape (http://www.inkscape.org/) -->

<svg
   version="1.1"
   id="svg2"
   width="1097.2"
   height="1096"
   viewBox="0 0 1097.2 1096"
   sodipodi:docname="general-assembly-seeklogo.eps"
   xmlns:inkscape="http://www.inkscape.org/namespaces/inkscape"
   xmlns:sodipodi="http://sodipodi.sourceforge.net/DTD/sodipodi-0.dtd"
   xmlns="http://www.w3.org/2000/svg"
   xmlns:svg="http://www.w3.org/2000/svg">
  <defs
     id="defs6" />
  <sodipodi:namedview
     id="namedview4"
     pagecolor="#ffffff"
     bordercolor="#000000"
     borderopacity="0.25"
     inkscape:showpageshadow="2"
     inkscape:pageopacity="0.0"
     inkscape:pagecheckerboard="0"
     inkscape:deskcolor="#d1d1d1" />
  <g
     id="g8"
     inkscape:groupmode="layer"
     inkscape:label="ink_ext_XXXXXX"
     transform="matrix(1.3333333,0,0,-1.3333333,0,1096)">
    <g
       id="g10"
       transform="scale(0.1)">
      <path
         d="M 5402.09,1716.81 5253.78,2885.3 h -395.5 L 4709.97,1716.81 h -687.62 l 633.7,4804.36 h 795.47 l 638.19,-4804.36 z m -1766.24,206.72 c -148.31,-161.78 -359.54,-247.17 -647.17,-247.17 -283.14,0 -485.38,80.89 -638.19,242.68 -152.8,161.8 -233.7,377.52 -233.7,647.17 v 3096.56 c 0,269.66 71.91,485.38 224.71,647.18 148.31,166.28 359.55,247.18 642.68,247.18 287.64,0 489.88,-80.9 642.68,-247.18 148.31,-161.8 233.7,-377.52 233.7,-647.18 V 4921.2 H 3208.9 v 795.5 c 0,121.35 -103.37,211.23 -224.72,211.23 -121.34,0 -211.23,-94.38 -211.23,-215.72 V 2521.27 c 0,-116.85 89.89,-211.23 211.23,-211.23 121.35,0 220.22,94.38 220.22,215.73 v 876.38 h -220.22 v 584.25 h 876.38 V 2570.71 c 0,-269.66 -71.91,-485.38 -224.71,-647.18 z m 4085.27,2193.2 c 0,274.15 224.72,494.37 498.86,494.37 l -125.84,615.73 c -251.67,-103.39 -543.8,13.48 -647.17,269.65 -107.86,256.18 13.49,543.81 269.66,651.67 l -350.56,521.33 c -193.25,-193.25 -507.85,-193.25 -701.1,0 -197.74,193.26 -197.74,507.85 0,701.11 l -521.33,350.55 c -107.86,-256.18 -399.99,-373.02 -651.67,-269.66 -256.17,103.37 -373.01,395.5 -269.65,651.67 l -615.71,121.34 c 0,-274.14 -220.22,-498.86 -498.87,-498.86 -274.15,0 -494.36,224.72 -494.36,498.86 l -615.71,-121.34 c 103.37,-256.17 -17.98,-548.3 -269.66,-651.67 -256.17,-103.36 -548.3,13.48 -651.67,269.66 l -521.33,-350.55 c 193.25,-193.26 193.25,-507.85 0,-701.11 -193.25,-193.25 -507.85,-193.25 -705.596,0 L 503.355,6148.15 C 755.035,6040.29 876.379,5752.66 773.012,5496.48 669.645,5240.31 377.52,5123.44 121.344,5226.83 L 0,4611.1 c 274.152,0 498.863,-220.22 498.863,-494.37 C 498.863,3838.09 274.152,3617.87 0,3617.87 L 121.344,3002.16 C 377.52,3105.53 669.645,2984.18 773.012,2732.5 876.379,2476.33 755.035,2188.7 503.355,2080.84 L 849.414,1559.5 c 197.746,193.25 512.346,193.25 705.596,0 193.25,-193.25 193.25,-507.85 0,-701.098 l 521.33,-350.55 c 103.37,256.168 395.5,377.507 651.67,269.648 251.68,-103.359 373.03,-395.488 269.66,-651.66 L 3613.38,4.49219 c 0,274.14881 220.21,498.86681 494.36,498.86681 278.65,0 498.87,-224.718 498.87,-498.86681 L 5222.32,125.84 c -103.36,256.172 13.48,548.301 269.65,651.66 251.68,107.859 543.81,-13.48 651.67,-269.648 l 521.33,350.55 c -197.74,193.248 -197.74,507.848 0,701.098 193.25,193.25 507.85,193.25 701.1,0 l 350.56,521.34 c -256.17,107.86 -377.52,395.49 -269.66,651.66 103.37,251.68 395.5,373.03 651.67,269.66 l 121.34,615.71 c -274.14,0 -498.86,220.22 -498.86,498.86"
         style="fill:#e51d26;fill-opacity:1;fill-rule:nonzero;stroke:none"
         id="path12" />
      <path
         d="m 5060.53,4152.69 c -202.25,0 -364.04,-166.29 -364.04,-368.53 0,-202.25 161.79,-368.54 364.04,-368.54 197.74,0 359.54,166.29 359.54,368.54 0,202.24 -161.8,368.53 -359.54,368.53"
         style="fill:#e51d26;fill-opacity:1;fill-rule:nonzero;stroke:none"
         id="path14" />
    </g>
  </g>
</svg>
